<svg viewBox="0 0 132 150" fill="none" xmlns="http://www.w3.org/2000/svg">
<path d="M24.2143 10.25C22.9568 10.25 21.8687 9.79232 20.9498 8.87695C20.0309 7.96159 19.5714 6.8776 19.5714 5.625C19.5714 4.3724 20.0309 3.28841 20.9498 2.37305C21.8687 1.45768 22.9568 1 24.2143 1H107.786C109.043 1 110.131 1.45768 111.05 2.37305C111.969 3.28841 112.429 4.3724 112.429 5.625C112.429 6.8776 111.969 7.96159 111.05 8.87695C110.131 9.79232 109.043 10.25 107.786 10.25H24.2143ZM19.2087 149C16.7906 149 14.4933 148.518 12.317 147.555C10.1406 146.591 8.2061 145.266 6.51339 143.58C4.82068 141.894 3.4907 139.967 2.52344 137.799C1.55618 135.631 1.04836 133.318 1 130.861V37.6387C1 35.2298 1.48363 32.9414 2.45089 30.7734C3.41815 28.6055 4.74814 26.6784 6.44085 24.9922C8.13356 23.306 10.0681 21.9811 12.2444 21.0176C14.4208 20.054 16.7422 19.5482 19.2087 19.5H112.791C115.209 19.5 117.507 19.9818 119.683 20.9453C121.859 21.9089 123.794 23.2337 125.487 24.9199C127.179 26.6061 128.509 28.5332 129.477 30.7012C130.444 32.8691 130.952 35.1816 131 37.6387V130.861C131 133.27 130.516 135.559 129.549 137.727C128.582 139.895 127.252 141.822 125.559 143.508C123.866 145.194 121.932 146.519 119.756 147.482C117.579 148.446 115.258 148.952 112.791 149H19.2087ZM112.429 139.75C113.734 139.75 114.943 139.509 116.056 139.027C117.168 138.546 118.135 137.895 118.958 137.076C119.78 136.257 120.457 135.27 120.989 134.113C121.521 132.957 121.763 131.753 121.714 130.5V38C121.714 36.7474 121.472 35.5671 120.989 34.459C120.505 33.3509 119.852 32.3633 119.03 31.4961C118.208 30.6289 117.217 29.9544 116.056 29.4727C114.895 28.9909 113.686 28.75 112.429 28.75H19.5714C18.2656 28.75 17.0565 28.9909 15.9442 29.4727C14.8318 29.9544 13.8646 30.6048 13.0424 31.4238C12.2202 32.2428 11.5432 33.2305 11.0112 34.3867C10.4792 35.543 10.2374 36.7474 10.2857 38V130.5C10.2857 131.801 10.5275 133.005 11.0112 134.113C11.4948 135.221 12.1477 136.209 12.9699 137.076C13.792 137.943 14.7593 138.594 15.8717 139.027C16.984 139.461 18.2173 139.702 19.5714 139.75H112.429ZM19.5714 84.25C19.5714 77.8424 20.7805 71.8444 23.1987 66.2559C25.6168 60.6673 28.9297 55.7533 33.1373 51.5137C37.3449 47.2741 42.2537 43.974 47.8638 41.6133C53.474 39.2526 59.5193 38.0482 66 38C72.4323 38 78.4535 39.2044 84.0636 41.6133C89.6737 44.0221 94.6068 47.3223 98.8627 51.5137C103.119 55.7051 106.432 60.5951 108.801 66.1836C111.171 71.7721 112.38 77.7943 112.429 84.25C112.429 90.6576 111.219 96.6556 108.801 102.244C106.383 107.833 103.07 112.747 98.8627 116.986C94.6551 121.226 89.7463 124.526 84.1362 126.887C78.526 129.247 72.4807 130.452 66 130.5C59.5677 130.5 53.5465 129.296 47.9364 126.887C42.3263 124.478 37.3932 121.178 33.1373 116.986C28.8813 112.795 25.5685 107.905 23.1987 102.316C20.8289 96.7279 19.6198 90.7057 19.5714 84.25ZM103.143 84.25V83.5273C103.143 78.5169 102.151 73.8197 100.169 69.4355C98.1856 65.0514 95.4773 61.1973 92.0435 57.873C88.6097 54.5488 84.6682 51.9714 80.2188 50.1406C75.7693 48.3099 71.0298 47.3464 66 47.25C60.8735 47.25 56.0614 48.2135 51.5636 50.1406C47.0658 52.0677 43.1243 54.6934 39.7388 58.0176C36.3534 61.3418 33.6935 65.2682 31.7589 69.7969C29.8244 74.3255 28.8571 79.1432 28.8571 84.25C28.8571 89.3568 29.8244 94.1504 31.7589 98.6309C33.6935 103.111 36.3292 107.038 39.6663 110.41C43.0033 113.783 46.9449 116.432 51.4911 118.359C56.0372 120.286 60.8735 121.25 66 121.25C71.1265 121.25 75.9386 120.286 80.4364 118.359C84.9342 116.432 88.8757 113.807 92.2612 110.482C95.6466 107.158 98.3065 103.232 100.241 98.7031C102.176 94.1745 103.143 89.3568 103.143 84.25ZM56.7143 84.25C56.7143 82.9492 56.9561 81.7448 57.4397 80.6367C57.9234 79.5286 58.5763 78.5651 59.3984 77.7461C60.2206 76.9271 61.2121 76.2526 62.3728 75.7227C63.5335 75.1927 64.7426 74.9518 66 75C67.2574 75 68.4423 75.2409 69.5547 75.7227C70.667 76.2044 71.6585 76.8548 72.529 77.6738C73.3996 78.4928 74.0766 79.4805 74.5603 80.6367C75.0439 81.793 75.2857 82.9974 75.2857 84.25C75.2857 85.5508 75.0439 86.7552 74.5603 87.8633C74.0766 88.9714 73.4237 89.9349 72.6016 90.7539C71.7794 91.5729 70.7879 92.2474 69.6272 92.7773C68.4665 93.3073 67.2574 93.5482 66 93.5C64.6942 93.5 63.4851 93.2591 62.3728 92.7773C61.2604 92.2956 60.269 91.6452 59.3984 90.8262C58.5279 90.0072 57.875 89.0436 57.4397 87.9355C57.0045 86.8275 56.7626 85.599 56.7143 84.25Z" fill="url(#paint0_linear)"/>
<path d="M0.499903 130.861L0.500097 130.871C0.549729 133.393 1.07135 135.771 2.06682 138.003C3.05929 140.227 4.42456 142.205 6.16052 143.934C7.89648 145.664 9.88195 147.023 12.1145 148.012C14.3557 149.004 16.722 149.5 19.2087 149.5L112.791 149.5L112.801 149.5C115.332 149.45 117.719 148.931 119.958 147.94C122.191 146.951 124.176 145.591 125.912 143.862C127.648 142.133 129.013 140.155 130.006 137.93C131.002 135.697 131.5 133.339 131.5 130.861L131.5 37.6387L131.5 37.6288C131.45 35.1073 130.929 32.7287 129.933 30.4974C128.941 28.273 127.575 26.295 125.839 24.5657C124.104 22.8364 122.118 21.4766 119.885 20.4881C117.644 19.4959 115.278 19 112.791 19H19.2087V18.9999L19.1989 19.0001C16.6685 19.0495 14.2813 19.569 12.042 20.5604C9.80941 21.5488 7.82393 22.9087 6.08798 24.638C4.35202 26.3672 2.98674 28.3453 1.99428 30.5697C0.997984 32.8028 0.5 35.1607 0.5 37.6387L0.499903 130.861ZM121.214 130.5V130.51L121.215 130.519C121.26 131.692 121.034 132.818 120.535 133.904C120.025 135.012 119.381 135.949 118.605 136.722C117.829 137.495 116.915 138.111 115.857 138.569C114.812 139.021 113.671 139.25 112.429 139.25H19.5803C18.2783 139.203 17.1043 138.971 16.0532 138.561C15.0096 138.155 14.1042 137.546 13.3327 136.732C12.5509 135.908 11.9301 134.969 11.4694 133.913C11.0154 132.873 10.7857 131.737 10.7857 130.5V38V37.9904L10.7853 37.9807C10.7401 36.808 10.9658 35.6816 11.4654 34.5957C11.9749 33.4883 12.6192 32.5512 13.3953 31.7781C14.1711 31.0052 15.0854 30.3895 16.1429 29.9315C17.1878 29.4789 18.3286 29.25 19.5714 29.25H112.429C113.62 29.25 114.764 29.4779 115.864 29.9345C116.964 30.3908 117.896 31.0263 118.667 31.8401C119.449 32.6647 120.07 33.6035 120.531 34.659C120.986 35.7017 121.214 36.8137 121.214 38V130.5ZM19.0714 84.25L19.0714 84.2537C19.1203 90.771 20.3412 96.8587 22.7383 102.512C25.1333 108.159 28.483 113.104 32.7864 117.343C37.0877 121.579 42.0731 124.913 47.7391 127.346C53.4149 129.783 59.5036 131 66 131L66.0037 131C72.5454 130.951 78.6559 129.735 84.3301 127.348C89.9993 124.962 94.9631 121.625 99.2176 117.339C103.47 113.054 106.818 108.087 109.26 102.443C111.707 96.7882 112.929 90.7222 112.929 84.25L112.929 84.2463C112.88 77.729 111.659 71.6413 109.262 65.9884C106.867 60.3405 103.517 55.3956 99.2136 51.1574C94.9123 46.9214 89.9269 43.5867 84.2609 41.1538C78.5851 38.7168 72.4964 37.5 66 37.5L65.9963 37.5C59.4546 37.5486 53.3441 38.7648 47.6699 41.1524C42.0007 43.538 37.0369 46.8746 32.7824 51.1615C28.53 55.4462 25.1822 60.4126 22.7398 66.0573C20.2931 71.7118 19.0714 77.7778 19.0714 84.25ZM56.2143 84.25V84.259L56.2146 84.2679C56.2647 85.6659 56.5158 86.9511 56.9743 88.1184C57.4367 89.2955 58.1317 90.3209 59.0558 91.1903C59.9691 92.0496 61.0094 92.7317 62.174 93.2362C63.3511 93.746 64.6252 93.9988 65.9904 94C67.3236 94.0496 68.6071 93.7928 69.8349 93.2322C71.0442 92.68 72.0862 91.973 72.9544 91.1081C73.823 90.243 74.5108 89.2265 75.0185 88.0633C75.5317 86.8875 75.7857 85.6143 75.7857 84.25C75.7857 82.9311 75.5307 81.6611 75.0215 80.4438C74.5122 79.226 73.7958 78.1791 72.8716 77.3097C71.9584 76.4504 70.9181 75.7683 69.7534 75.2638C68.5788 74.7551 67.3292 74.5012 66.0096 74.5C64.6764 74.4504 63.3929 74.7072 62.1651 75.2678C60.9558 75.82 59.9138 76.527 59.0456 77.3919C58.177 78.257 57.4892 79.2735 56.9815 80.4367C56.4683 81.6125 56.2143 82.8857 56.2143 84.25ZM20.5969 9.23119C21.6062 10.2366 22.82 10.75 24.2143 10.75H107.786C109.18 10.75 110.394 10.2366 111.403 9.23119C112.412 8.22572 112.929 7.01572 112.929 5.625C112.929 4.23428 112.412 3.02428 111.403 2.01881C110.394 1.01338 109.18 0.5 107.786 0.5H24.2143C22.82 0.5 21.6062 1.01338 20.5969 2.01881C19.5876 3.02428 19.0714 4.23428 19.0714 5.625C19.0714 7.01572 19.5876 8.22572 20.5969 9.23119ZM102.643 83.5273V84.25C102.643 89.2918 101.688 94.0424 99.7813 98.5067C97.8714 102.978 95.2479 106.849 91.9109 110.126C88.5711 113.405 84.682 115.996 80.2395 117.9C75.8069 119.799 71.0621 120.75 66 120.75C60.9379 120.75 56.1682 119.799 51.6862 117.899C47.1976 115.996 43.3111 113.383 40.0217 110.058C36.7297 106.732 34.1285 102.858 32.218 98.4327C30.3117 94.0177 29.3571 89.2918 29.3571 84.25C29.3571 79.2082 30.3117 74.4576 32.2187 69.9933C34.1286 65.5224 36.7521 61.651 40.0892 58.3743C43.4289 55.095 47.318 52.5036 51.7605 50.6002C56.1917 48.7017 60.9349 47.7506 65.9952 47.75C70.964 47.8457 75.6405 48.7975 80.0285 50.603C84.4197 52.4098 88.3078 54.9524 91.6957 58.2323C95.084 61.5124 97.7559 65.3145 99.713 69.6416C101.665 73.9583 102.643 78.585 102.643 83.5273Z" stroke="#757575" stroke-opacity="0.4"/>
<defs>
<linearGradient id="paint0_linear" x1="41.3" y1="43.92" x2="142.942" y2="135.788" gradientUnits="userSpaceOnUse">
<stop stop-color="#ED7525"/>
<stop offset="0.161458" stop-color="#E15963"/>
<stop offset="0.328125" stop-color="#CF427E"/>
<stop offset="0.494792" stop-color="#B5318B"/>
<stop offset="0.661458" stop-color="#962C8D"/>
<stop offset="0.828125" stop-color="#712E85"/>
<stop offset="1" stop-color="#483174"/>
</linearGradient>
</defs>
</svg>
