<svg viewBox="0 0 123 150" fill="none" xmlns="http://www.w3.org/2000/svg">
<path d="M122 7.98525V116.911C122 120.065 121.37 123.024 120.109 125.789C118.849 128.554 117.152 130.955 115.019 132.992C112.886 135.029 110.414 136.655 107.602 137.867C104.791 139.08 101.834 139.686 98.7313 139.686C95.4834 139.686 92.4536 139.08 89.6419 137.867C86.8303 136.655 84.3822 135.005 82.2978 132.919C80.2133 130.833 78.5408 128.36 77.2804 125.498C76.0201 122.636 75.4141 119.604 75.4626 116.402C75.4626 113.298 76.0443 110.339 77.2077 107.525C78.3712 104.712 79.9951 102.238 82.0796 100.103C84.1641 97.9689 86.5879 96.2711 89.3511 95.0098C92.1143 93.7486 95.0713 93.118 98.2223 93.118C100.84 93.118 103.385 93.4818 105.857 94.2094C108.33 94.9371 110.608 96.1255 112.693 97.7748V43.9302L47.5401 68.3786V126.225C47.5401 129.378 46.9099 132.337 45.6495 135.102C44.3891 137.867 42.6925 140.268 40.5595 142.306C38.4265 144.343 35.9542 145.968 33.1426 147.181C30.331 148.394 27.3739 149 24.2714 149C21.0235 149 17.9937 148.394 15.1821 147.181C12.3704 145.968 9.92237 144.319 7.83788 142.233C5.75339 140.147 4.08095 137.673 2.82056 134.811C1.56017 131.949 0.954217 128.917 1.00269 125.716C1.00269 122.611 1.58441 119.652 2.74785 116.839C3.91128 114.025 5.53524 111.551 7.61973 109.417C9.70422 107.283 12.128 105.585 14.8912 104.323C17.6544 103.062 20.6114 102.432 23.7624 102.432C26.3801 102.432 28.9009 102.795 31.3247 103.523C33.7486 104.251 36.027 105.415 38.1599 107.016L37.8691 34.2527C37.8691 32.846 38.2811 31.5362 39.1052 30.3235C39.9293 29.1108 41.0443 28.2134 42.4501 27.6313L112.62 1.43658C113.347 1.14553 114.147 1 115.019 1C116.958 1 118.607 1.67912 119.964 3.03736C121.321 4.39561 122 6.0449 122 7.98525ZM47.2493 35.7807V58.4828L112.693 34.0344V11.3323L47.2493 35.7807ZM112.693 116.402C112.693 114.51 112.329 112.715 111.602 111.018C110.875 109.32 109.881 107.84 108.62 106.579C107.36 105.318 105.857 104.299 104.112 103.523C102.367 102.747 100.573 102.383 98.7313 102.432C96.8407 102.432 95.0471 102.795 93.3504 103.523C91.6537 104.251 90.1752 105.245 88.9148 106.506C87.6544 107.768 86.6364 109.271 85.8608 111.018C85.0852 112.764 84.7216 114.559 84.7701 116.402C84.7701 118.294 85.1336 120.089 85.8608 121.787C86.5879 123.484 87.5817 124.964 88.8421 126.225C90.1025 127.486 91.6052 128.505 93.3504 129.281C95.0956 130.057 96.8892 130.421 98.7313 130.373C100.622 130.373 102.416 130.009 104.112 129.281C105.809 128.554 107.287 127.559 108.548 126.298C109.808 125.037 110.826 123.533 111.602 121.787C112.377 120.04 112.741 118.245 112.693 116.402ZM38.2326 125.643C38.2326 123.751 37.8691 121.956 37.1419 120.259C36.4148 118.561 35.421 117.081 34.1606 115.82C32.9002 114.559 31.3975 113.564 29.6523 112.837C27.9071 112.109 26.1135 111.745 24.2714 111.745C22.3808 111.745 20.5872 112.109 18.8905 112.837C17.1938 113.564 15.7153 114.559 14.4549 115.82C13.1945 117.081 12.1765 118.585 11.4009 120.331C10.6253 122.078 10.2617 123.872 10.3102 125.716C10.3102 127.608 10.6738 129.402 11.4009 131.1C12.128 132.798 13.1218 134.278 14.3822 135.539C15.6426 136.8 17.1454 137.819 18.8905 138.595C20.6357 139.371 22.4293 139.735 24.2714 139.686C26.2105 139.686 28.0283 139.323 29.725 138.595C31.4217 137.867 32.9002 136.849 34.1606 135.539C35.421 134.229 36.4148 132.75 37.1419 131.1C37.8691 129.451 38.2326 127.632 38.2326 125.643Z" fill="url(#paint0_linear)"/>
<path d="M112.193 96.7712C110.282 95.3973 108.217 94.3827 105.998 93.7298C103.48 92.9884 100.887 92.618 98.2223 92.618C95.0024 92.618 91.9743 93.2629 89.1435 94.555C86.3252 95.8413 83.8503 97.5746 81.7219 99.7539C79.5919 101.935 77.933 104.463 76.7457 107.334C75.5571 110.208 74.963 113.231 74.9626 116.399C74.9136 119.669 75.5333 122.771 76.8228 125.699C78.1067 128.614 79.8133 131.141 81.9441 133.273C84.075 135.405 86.5764 137.09 89.4439 138.326C92.3218 139.568 95.4195 140.186 98.7313 140.186C101.901 140.186 104.925 139.566 107.801 138.326C110.665 137.091 113.187 135.434 115.365 133.354C117.545 131.271 119.278 128.817 120.564 125.996C121.856 123.163 122.5 120.133 122.5 116.911V7.98525C122.5 5.91392 121.77 4.13703 120.318 2.68393C118.866 1.23081 117.09 0.5 115.019 0.5C114.093 0.5 113.231 0.654407 112.44 0.970178L42.2752 27.1628L42.267 27.1659L42.2588 27.1693C40.7664 27.7873 39.5728 28.7459 38.6917 30.0425C37.8138 31.3344 37.3691 32.7413 37.3691 34.2527L37.3691 34.2547L37.656 106.037C35.7114 104.697 33.6486 103.699 31.4685 103.044C28.9964 102.302 26.4271 101.932 23.7624 101.932C20.5425 101.932 17.5144 102.577 14.6836 103.869C11.8654 105.155 9.3904 106.888 7.26202 109.068C5.13205 111.249 3.47309 113.776 2.28579 116.648C1.09728 119.522 0.503166 122.545 0.502693 125.712C0.45369 128.982 1.07338 132.084 2.36297 135.013C3.64677 137.928 5.35338 140.454 7.48421 142.586C9.61514 144.719 12.1166 146.403 14.984 147.64L15.1821 147.181L14.984 147.64C17.862 148.881 20.9596 149.5 24.2714 149.5C27.4411 149.5 30.4656 148.88 33.3406 147.64C36.2047 146.405 38.7273 144.747 40.9049 142.667C43.0852 140.585 44.8185 138.131 46.1045 135.31C47.3957 132.477 48.0401 129.447 48.0401 126.225V68.725L112.193 44.6519V96.7712ZM112.193 116.402H112.192L112.193 116.415C112.239 118.182 111.891 119.903 111.145 121.584C110.392 123.278 109.408 124.73 108.194 125.944C106.98 127.159 105.555 128.118 103.915 128.822C102.282 129.522 100.556 129.873 98.7313 129.872L98.7181 129.873C96.9532 129.919 95.2333 129.571 93.5536 128.824C91.8605 128.071 90.4097 127.087 89.1958 125.872C87.9819 124.657 87.0234 123.231 86.3204 121.59C85.6206 119.956 85.2701 118.228 85.2701 116.402H85.2702L85.2699 116.389C85.2234 114.623 85.5712 112.902 86.3177 111.221C87.0703 109.526 88.0545 108.075 89.2685 106.86C90.4823 105.645 91.9072 104.686 93.5475 103.983C95.1804 103.282 96.9068 102.932 98.7313 102.932V102.932L98.7444 102.931C100.509 102.885 102.229 103.233 103.909 103.98C105.602 104.733 107.053 105.718 108.267 106.933C109.481 108.147 110.439 109.573 111.142 111.215C111.842 112.849 112.193 114.576 112.193 116.402ZM10.8102 125.716H10.8104L10.81 125.703C10.7636 123.936 11.1113 122.215 11.8579 120.534C12.6104 118.84 13.5946 117.388 14.8086 116.173C16.0224 114.959 17.4473 114 19.0876 113.296C20.7205 112.596 22.4469 112.245 24.2714 112.245C26.0457 112.245 27.774 112.595 29.4599 113.298C31.1484 114.002 32.5955 114.961 33.8069 116.173C35.0208 117.388 35.9793 118.814 36.6823 120.455C37.3821 122.09 37.7326 123.817 37.7326 125.643C37.7326 127.57 37.3808 129.319 36.6844 130.899C35.9811 132.494 35.0204 133.924 33.8003 135.192C32.587 136.453 31.1642 137.434 29.5279 138.135C27.8967 138.835 26.1462 139.186 24.2714 139.186L24.2582 139.186C22.4933 139.233 20.7734 138.885 19.0937 138.138C17.4006 137.385 15.9499 136.4 14.7359 135.185C13.5221 133.971 12.5635 132.545 11.8605 130.903C11.1607 129.269 10.8102 127.542 10.8102 125.716ZM47.7493 36.1277L112.193 12.0529V33.6875L47.7493 57.7622V36.1277Z" stroke="#757575" stroke-opacity="0.4"/>
<defs>
<linearGradient id="paint0_linear" x1="38.51" y1="43.92" x2="139.164" y2="128.597" gradientUnits="userSpaceOnUse">
<stop stop-color="#ED7525"/>
<stop offset="0.161458" stop-color="#E15963"/>
<stop offset="0.328125" stop-color="#CF427E"/>
<stop offset="0.494792" stop-color="#B5318B"/>
<stop offset="0.661458" stop-color="#962C8D"/>
<stop offset="0.828125" stop-color="#712E85"/>
<stop offset="1" stop-color="#483174"/>
</linearGradient>
</defs>
</svg>
