<svg viewBox="0 0 150 150" fill="none" xmlns="http://www.w3.org/2000/svg">
<path d="M21.7299 149C18.9769 149 16.3616 148.449 13.8839 147.348C11.4062 146.247 9.20387 144.733 7.27679 142.806C5.3497 140.879 3.83557 138.676 2.73438 136.199C1.63318 133.721 1.05506 131.078 1 128.27V21.7299C1 18.9769 1.5506 16.3616 2.65179 13.8839C3.75298 11.4062 5.26711 9.20387 7.1942 7.27679C9.12128 5.3497 11.3237 3.83557 13.8013 2.73438C16.279 1.63318 18.9219 1.05506 21.7299 1H128.27C131.023 1 133.638 1.5506 136.116 2.65179C138.594 3.75298 140.796 5.26711 142.723 7.1942C144.65 9.12128 146.164 11.3237 147.266 13.8013C148.367 16.279 148.945 18.9219 149 21.7299V128.27C149 131.023 148.449 133.638 147.348 136.116C146.247 138.594 144.733 140.796 142.806 142.723C140.879 144.65 138.676 146.164 136.199 147.266C133.721 148.367 131.078 148.945 128.27 149H21.7299ZM127.857 138.429C129.344 138.429 130.72 138.153 131.987 137.603C133.253 137.052 134.354 136.309 135.29 135.373C136.226 134.437 136.997 133.308 137.603 131.987C138.208 130.665 138.484 129.289 138.429 127.857V22.1429C138.429 20.7113 138.153 19.3624 137.603 18.096C137.052 16.8296 136.309 15.7009 135.373 14.7098C134.437 13.7188 133.308 12.9479 131.987 12.3973C130.665 11.8467 129.289 11.5714 127.857 11.5714H22.1429C20.6562 11.5714 19.2798 11.8467 18.0134 12.3973C16.747 12.9479 15.6458 13.6912 14.7098 14.6272C13.7738 15.5632 13.003 16.692 12.3973 18.0134C11.7917 19.3348 11.5164 20.7113 11.5714 22.1429V127.857C11.5714 129.344 11.8467 130.72 12.3973 131.987C12.9479 133.253 13.6912 134.382 14.6272 135.373C15.5632 136.364 16.6644 137.107 17.9308 137.603C19.1972 138.098 20.6012 138.374 22.1429 138.429H127.857ZM32.7143 43.2857H22.1429V22.1429H32.7143V43.2857ZM127.857 43.2857H117.286V22.1429H127.857V43.2857ZM32.7143 85.5714H22.1429V64.4286H32.7143V85.5714ZM127.857 85.5714H117.286V64.4286H127.857V85.5714ZM32.7143 127.857H22.1429V106.714H32.7143V127.857ZM127.857 127.857H117.286V106.714H127.857V127.857Z" fill="url(#paint0_linear)"/>
<path d="M0.499904 128.27L0.500096 128.28C0.556415 131.152 1.14823 133.861 2.27747 136.402C3.40371 138.936 4.95298 141.189 6.92323 143.159C8.89348 145.13 11.1468 146.679 13.6809 147.805C16.2235 148.935 18.9081 149.5 21.7299 149.5L128.27 149.5L128.28 149.5C131.152 149.444 133.861 148.852 136.402 147.723C138.936 146.596 141.189 145.047 143.159 143.077C145.13 141.107 146.679 138.853 147.805 136.319C148.935 133.777 149.5 131.092 149.5 128.27L149.5 21.7299L149.5 21.7201C149.444 18.8479 148.852 16.1391 147.723 13.5983C146.596 11.0642 145.047 8.81089 143.077 6.84064C141.107 4.87039 138.853 3.32113 136.319 2.19488C133.777 1.06483 131.092 0.5 128.27 0.5H21.7299V0.499904L21.7201 0.500096C18.8479 0.556415 16.1391 1.14823 13.5983 2.27747C11.0642 3.40371 8.81089 4.95298 6.84064 6.92323C4.87039 8.89348 3.32113 11.1468 2.19488 13.6809C1.06483 16.2235 0.5 18.9081 0.5 21.7299L0.499904 128.27ZM137.929 127.857V127.867L137.929 127.876C137.981 129.228 137.722 130.527 137.148 131.778C136.565 133.051 135.827 134.129 134.937 135.019C134.047 135.909 132.999 136.617 131.787 137.144C130.588 137.665 129.28 137.929 127.857 137.929H22.1518C20.6625 137.875 19.318 137.609 18.113 137.137C16.9155 136.668 15.8762 135.967 14.9907 135.029C14.095 134.081 13.3837 133.001 12.8559 131.787C12.3347 130.588 12.0714 129.28 12.0714 127.857V22.1429V22.1332L12.0711 22.1236C12.0191 20.7716 12.2784 19.473 12.8519 18.2217C13.4352 16.949 14.1733 15.8708 15.0634 14.9808C15.9531 14.091 17.0014 13.3825 18.2128 12.8559C19.4115 12.3347 20.7195 12.0714 22.1429 12.0714H127.857C129.223 12.0714 130.534 12.3337 131.794 12.8589C133.054 13.3839 134.124 14.1156 135.009 15.0531C135.905 16.0015 136.616 17.0814 137.144 18.2953C137.666 19.4965 137.929 20.7773 137.929 22.1429V127.857ZM32.7143 43.7857H33.2143V43.2857V22.1429V21.6429H32.7143H22.1429H21.6429V22.1429V43.2857V43.7857H22.1429H32.7143ZM127.857 43.7857H128.357V43.2857V22.1429V21.6429H127.857H117.286H116.786V22.1429V43.2857V43.7857H117.286H127.857ZM32.7143 86.0714H33.2143V85.5714V64.4286V63.9286H32.7143H22.1429H21.6429V64.4286V85.5714V86.0714H22.1429H32.7143ZM127.857 86.0714H128.357V85.5714V64.4286V63.9286H127.857H117.286H116.786V64.4286V85.5714V86.0714H117.286H127.857ZM32.7143 128.357H33.2143V127.857V106.714V106.214H32.7143H22.1429H21.6429V106.714V127.857V128.357H22.1429H32.7143ZM127.857 128.357H128.357V127.857V106.714V106.214H127.857H117.286H116.786V106.714V127.857V128.357H117.286H127.857Z" stroke="#757575" stroke-opacity="0.4"/>
<defs>
<linearGradient id="paint0_linear" x1="60.2" y1="61.68" x2="181.56" y2="174.16" gradientUnits="userSpaceOnUse">
<stop stop-color="#ED7525"/>
<stop offset="0.161458" stop-color="#E15963"/>
<stop offset="0.328125" stop-color="#CF427E"/>
<stop offset="0.494792" stop-color="#B5318B"/>
<stop offset="0.661458" stop-color="#962C8D"/>
<stop offset="0.828125" stop-color="#712E85"/>
<stop offset="1" stop-color="#483174"/>
</linearGradient>
</defs>
</svg>
